<?xml version="1.0" encoding="utf-8"?>
<!-- Svg Vector Icons : http://www.onlinewebfonts.com/icon -->
<!DOCTYPE svg PUBLIC "-//W3C//DTD SVG 1.1//EN" "http://www.w3.org/Graphics/SVG/1.1/DTD/svg11.dtd">
<svg version="1.1" xmlns="http://www.w3.org/2000/svg" xmlns:xlink="http://www.w3.org/1999/xlink" x="0px" y="0px" viewBox="0 0 1000 1000" enable-background="new 0 0 1000 1000" xml:space="preserve">
<metadata> Svg Vector Icons : http://www.onlinewebfonts.com/icon </metadata>
<g><g transform="translate(0.000000,511.000000) scale(0.100000,-0.100000)"><path d="M3077.2,4968.9c-131.5-80.1-129.4-63.7-129.4-1105.2v-945l221.9-71.9c244.5-82.2,622.4-162.3,949.1-203.4c343.1-43.1,1421.5-37,1766.7,10.3c343.1,47.3,692.3,119.1,934.7,195.1l184.9,57.5l6.2,953.2c4.1,1014.8,4.1,1033.3-94.5,1109.3c-49.3,41.1-92.4,41.1-1912.5,41.1C3194.3,5010,3140.9,5007.9,3077.2,4968.9z"/><path d="M1579.7,3050.2c-139.7-63.7-195.2-238.3-121.2-382.1c57.5-110.9,647.1-472.5,1055.9-647.1c895.7-382.1,2709.6-491,4038.7-246.5c308.1,57.5,731.3,170.5,930.6,248.6c172.6,67.8,749.8,353.3,908,449.9c141.7,86.3,195.1,178.7,178.7,302c-18.5,143.8-176.7,258.8-308.1,230.1c-61.6-12.3-211.6-90.4-589.6-306.1c-1014.8-579.3-3087.5-739.5-4484.4-347.2c-367.7,102.7-801.2,308.1-1195.6,564.9C1754.3,3072.8,1680.3,3095.4,1579.7,3050.2z"/><path d="M2580.1,1558.8l-86.3-123.3h-277.3c-316.4,0-378-20.5-505.4-160.2c-236.2-260.9-80.1-677.9,277.3-741.6c94.5-16.4,92.4-4.1,55.5-217.8c-30.8-180.8-24.7-636.8,10.3-838.1c92.4-536.2,351.3-1029.2,749.8-1433.9l195.2-199.3l-215.7-106.8c-792.9-392.4-1376.3-899.8-1616.7-1409.2l-78.1-162.3l-6.2-353.3l-8.2-353.3l69.9-10.3c76-12.3,805.3-76,1403.1-123.3c2138.5-168.4,3165.6-158.2,5597.9,59.6c310.2,28.8,614.2,57.5,673.8,63.7l106.8,12.3v306.1c0,256.8-6.2,322.5-43.1,417c-143.8,386.2-657.4,901.8-1296.3,1298.3c-162.3,100.7-265,152-608,295.8c-45.2,20.5-39,28.8,139.7,199.3c519.7,493,809.4,1115.4,854.6,1826.2c10.3,180.8,4.1,285.6-45.2,630.7l-14.4,96.6h65.8c86.3,0,203.4,51.4,277.3,119.1c180.8,168.5,180.8,497.1,0,665.6c-106.8,98.6-187,119.1-486.9,119.1h-273.2l-88.3,125.3c-80.1,113-94.5,123.3-141.7,110.9c-156.1-39-768.3-156.1-1010.7-193.1c-998.4-152-2015.2-137.6-2937.6,41.1c-191,37-548.5,125.3-622.4,154.1C2678.7,1680,2633.5,1634.9,2580.1,1558.8z M7288.4,1275.4c106.8-117.1,277.3-712.8,324.6-1133.9c78.1-671.8-203.4-1407.2-727.2-1904.3c-480.7-456.1-1076.4-708.7-1752.3-739.6c-1068.2-49.3-2041.9,484.8-2502.1,1370.2C2428.1-739.9,2362.3-444.1,2376.7,9.9c12.3,369.8,119.1,852.5,246.5,1113.4c45.2,92.4,90.4,168.5,98.6,168.5c10.3,0,113-22.6,230.1-51.4c244.5-59.6,758-139.7,1125.7-178.7c394.4-41.1,1378.4-34.9,1756.4,12.3c320.4,37,1031.2,154.1,1263.4,205.4c73.9,16.4,139.7,28.8,145.8,30.8C7249.4,1312.3,7270,1295.9,7288.4,1275.4z M4359.1-2794.1c178.7-37,199.3-47.2,345.1-166.4c84.2-69.8,154.1-129.4,154.1-135.6c0-4.1-51.4-76-115-158.2c-180.8-234.2-293.8-501.3-388.3-908c-8.2-32.9-18.5-51.4-22.6-41.1c-18.5,51.4-398.5,1489.4-398.5,1507.9c0,10.3,53.4,2,117.1-20.5C4116.7-2738.7,4254.3-2773.6,4359.1-2794.1z M5936.7-2759.2c-154.1-616.3-357.4-1353.7-365.7-1331.2c-6.2,16.4-30.8,108.9-55.5,205.4c-57.5,223.9-195.2,511.5-324.6,667.6L5090.4-3092l182.8,131.5c166.4,119.1,199.2,135.6,365.7,168.5c98.6,20.5,201.3,45.2,228,55.5C5940.9-2707.9,5949.1-2709.9,5936.7-2759.2z"/><path d="M3672.9,763.8c-123.3-43.1-281.4-193.1-349.2-330.7c-47.2-96.6-57.5-143.8-57.5-271.2c2.1-265,123.3-466.3,355.4-579.3c332.8-164.3,710.8-32.9,871,302c41.1,86.3,57.5,156.1,57.5,232.1c0,108.9,0,108.9,90.4,147.9c184.9,82.2,460.2,90.4,661.5,16.4c65.7-22.6,69.8-30.8,69.8-119.2c0-246.5,133.5-460.2,357.4-575.2c125.3-63.7,160.2-71.9,297.9-71.9c129.4,0,178.7,10.3,273.2,57.5c219.8,106.8,347.2,299.9,361.5,548.5c10.3,199.3-43.1,349.2-172.5,482.7c-129.4,133.5-269.1,195.2-452,195.2c-215.7,0-322.5-45.2-476.6-197.2l-129.4-129.4l-67.8,28.8c-201.3,84.2-507.4,80.1-764.2-8.2l-108.9-39l-43.1,67.8c-57.5,92.4-152,170.5-277.3,228C4046.8,807,3812.6,815.2,3672.9,763.8z M4063.3,525.6c92.4-39,215.7-182.8,232.1-271.2c47.2-260.9-129.4-482.7-390.3-482.7C3683.2-228.4,3523-64,3523,168.1C3523,439.3,3810.6,630.3,4063.3,525.6z M6187.4,521.4c98.6-41.1,145.8-84.2,195.2-182.8c59.6-119.2,45.2-308.1-30.8-410.9c-74-96.5-193.1-156.1-312.2-156.1c-127.4,0-211.6,39-302,139.7c-131.5,145.9-127.3,353.3,10.3,511.5c34.9,41.1,92.4,86.3,127.4,100.7C5959.4,560.5,6097,558.4,6187.4,521.4z"/><path d="M4517.3-659.7c-80.1-22.6-269.1-92.5-421.1-158.2C3822.9-935,3818.8-937.1,3625.7-935c-217.8,0-365.7,47.3-571.1,184.9c-127.4,84.2-135.6,76-123.3-121.2c16.4-281.4,265-593.7,593.7-749.8c221.9-106.8,357.4-135.6,585.5-123.2c152,6.2,207.5,18.5,322.5,73.9c256.8,119.1,433.5,361.5,499.2,688.2C5002.1-641.3,4895.2-559.1,4517.3-659.7z"/><path d="M5129.4-639.2c-76-30.8-94.5-110.9-67.8-297.9c45.2-328.7,238.3-606,511.5-735.4c131.5-63.7,150-65.7,384.2-65.7c203.4,0,267.1,8.2,367.7,47.2c404.7,149.9,721,497.1,747.7,815.5c4.1,69.8,2.1,141.7-8.2,160.2c-16.4,28.8-30.8,24.6-110.9-30.8c-186.9-127.4-406.7-201.3-595.7-201.3c-117.1,2.1-234.2,37-575.2,178.7C5468.4-637.2,5246.5-592,5129.4-639.2z"/></g></g>
</svg>