<?xml version="1.0" encoding="utf-8"?>
<!-- Svg Vector Icons : http://www.onlinewebfonts.com/icon -->
<!DOCTYPE svg PUBLIC "-//W3C//DTD SVG 1.1//EN" "http://www.w3.org/Graphics/SVG/1.1/DTD/svg11.dtd">
<svg version="1.1" xmlns="http://www.w3.org/2000/svg" xmlns:xlink="http://www.w3.org/1999/xlink" x="0px" y="0px" viewBox="0 0 1000 1000" enable-background="new 0 0 1000 1000" xml:space="preserve">
<metadata> Svg Vector Icons : http://www.onlinewebfonts.com/icon </metadata>
<g><g transform="translate(0.000000,512.000000) scale(0.100000,-0.100000)"><path d="M660,5006.6c-209-49.9-400.8-209-498.6-416.2L100,4461.9V118.1v-4343.8l61.4-128.5c76.7-163,203.3-289.6,366.3-366.3l128.5-61.4H5000h4343.8l128.5,61.4c163,76.7,289.6,203.3,366.3,366.3l61.4,128.5V118.1v4343.8l-61.4,128.5c-76.7,163-203.3,289.6-366.3,366.3l-128.5,61.4l-4305.5,3.8C2575.9,5021.9,702.2,5016.2,660,5006.6z M5460.3,4183.8c1421.1-172.6,2637-1047.1,3243-2332.1C9272.9,643.6,9203.8-798.6,8523-1958.9c-339.5-575.3-870.7-1106.6-1446-1446c-1022.2-600.3-2253.4-728.8-3384.9-351c-1039.4,347.1-1921.6,1133.4-2395.3,2140.3c-180.3,379.7-314.5,861.1-360.5,1277.2c-26.9,235.9-26.9,705.8-1.9,916.7c76.7,623.3,304.9,1258.1,632.9,1764.4c130.4,197.5,228.2,324.1,203.3,258.9c-88.2-222.5-161.1-544.7-205.2-901.4c-55.6-435.3-21.1-1296.4,65.2-1678.1l24.9-105.5l24.9,182.2c80.6,577.3,343.3,1288.8,644.4,1745.2c59.5,90.1,105.5,149.6,99.7,132.3c-5.8-15.3-32.6-101.6-59.5-187.9C2200,1268.8,2138.6,515.1,2221.1,60.5c28.8-151.5,34.5-140,99.7,212.9c92.1,479.5,289.6,985.8,525.5,1334.8c59.4,88.2,109.3,157.3,113.1,155.3c1.9-3.8-15.3-92.1-42.2-197.5c-84.4-349-111.2-588.8-113.1-978.1c0-329.9,32.6-665.5,61.4-634.8c5.7,5.8,26.8,99.7,46,209c74.8,418.1,247.4,907.1,410.4,1164.1l67.1,105.5l-13.4-124.7c-21.1-180.3-15.3-632.9,11.5-834.2c40.3-299.2,84.4-525.5,101.7-515.9c7.7,5.7,15.3,30.7,15.3,53.7c0,92.1,97.8,427.7,161.1,558.1c67.1,136.2,278.1,408.5,303,393.2c9.6-5.8,19.2-120.8,23-258.9c7.7-212.9,63.3-623.3,99.7-719.2c5.7-15.3,32.6,44.1,57.5,134.3c47.9,164.9,207.1,517.8,234,517.8c7.7,0,78.6-55.6,159.2-120.8l143.8-120.8l-46-84.4c-36.4-71-44.1-107.4-38.4-212.9c7.7-147.7,57.5-235.9,176.4-320.3c67.1-46,94-51.8,222.5-51.8s155.3,5.8,222.5,51.8c118.9,84.4,168.8,172.6,176.4,320.3c7.7,157.3-44.1,270.4-166.9,356.7c-76.7,53.7-94,57.5-253.1,57.5h-170.7L3926,2099.2c-485.2,872.6-882.2,1595.6-882.2,1603.3c0,23,391.2,203.3,606,276.2c255.1,88.2,548.5,159.2,795.9,193.7C4685.5,4204.9,5235.9,4210.7,5460.3,4183.8z"/><path d="M2784.9-739.2c-314.5-164.9-318.4-575.4-5.8-736.4c86.3-44.1,239.7-47.9,337.5-7.7c322.2,136.2,322.2,611.8,0,747.9C3024.7-698.9,2859.7-698.9,2784.9-739.2z"/><path d="M6710.7-754.5c-72.9-61.4-92.1-138.1-53.7-226.3c28.8-71,111.2-128.5,184.1-128.5c118.9,0,226.3,134.2,201.4,251.2c-17.3,80.5-111.2,151.5-201.4,151.5C6789.3-706.6,6749-721.9,6710.7-754.5z"/><path d="M4769.9-2167.9c-126.6-65.2-178.4-151.5-168.8-285.8c13.4-180.3,126.6-285.7,308.8-285.7c170.7,0,320.3,178.4,291.5,347.1c-23,138.1-174.5,266.6-316.4,266.6C4867.7-2125.8,4815.9-2144.9,4769.9-2167.9z"/></g></g>
</svg>